<?xml version="1.0" encoding="UTF-8"?>
<svg version="1.1" xmlns="http://www.w3.org/2000/svg" width="512" height="512">
<path d="M0 0 C29.15901281 24.75938903 48.31425224 57.10630868 53.546875 95.31347656 C53.67578125 96.1475 53.8046875 96.98152344 53.9375 97.84082031 C61.82367742 158.54363335 29.78107665 223.2075583 1.10888672 274.51757812 C-0.44962551 277.3072127 -1.99646156 280.10311044 -3.54296875 282.89941406 C-17.01525817 307.12939582 -31.92166456 330.37054911 -47.453125 353.31347656 C-48.12794922 354.31459473 -48.80277344 355.31571289 -49.49804688 356.34716797 C-85.91498375 410.36803047 -85.91498375 410.36803047 -93.453125 411.93847656 C-99.69037783 410.63904889 -103.34597062 404.01776548 -106.890625 399.06347656 C-107.42993652 398.31332275 -107.96924805 397.56316895 -108.52490234 396.7902832 C-121.63595172 378.34940823 -134.0600369 359.3347245 -146.21679688 340.25341797 C-147.09087848 338.88188313 -147.96742217 337.51191593 -148.84570312 336.14306641 C-255.74735871 169.49178375 -255.74735871 169.49178375 -238.453125 83.31347656 C-229.51205655 44.78778273 -206.13576363 10.43899114 -172.453125 -10.68652344 C-118.92404375 -42.70798593 -48.67943849 -40.53546677 0 0 Z M-192.95703125 26.66210938 C-216.10718832 52.21492635 -227.74606882 86.63382658 -226.58496094 120.94384766 C-224.65255944 155.67697529 -210.37321909 189.06792255 -195.89404297 220.20996094 C-194.66970616 222.84699407 -193.46393312 225.49093278 -192.26953125 228.14160156 C-187.38465121 238.8908236 -181.71695181 249.18678641 -175.99560547 259.50927734 C-174.51394288 262.20291085 -173.0586928 264.90884216 -171.61328125 267.62207031 C-164.38207685 281.15500235 -156.53046476 294.25917434 -148.50259399 307.32746887 C-145.79638697 311.73774861 -143.14059204 316.17621315 -140.5 320.62597656 C-135.49576416 329.05416325 -130.27553634 337.27891384 -124.76123047 345.38134766 C-122.83560489 348.22558073 -120.94023639 351.08967718 -119.04150391 353.9519043 C-114.16109232 361.30531805 -109.21440224 368.60904417 -104.20019531 375.87182617 C-100.90050868 380.65246973 -97.64732848 385.46152191 -94.453125 390.31347656 C-90.53145578 389.00625349 -89.25024992 386.58889143 -87.015625 383.31347656 C-83.80622725 378.67875313 -80.57183083 374.06334135 -77.30482483 369.46905518 C-70.5401934 359.9444064 -63.98463591 350.29072777 -57.515625 340.56347656 C-56.99398773 339.78010925 -56.47235046 338.99674194 -55.93490601 338.18963623 C-47.8559518 326.04752542 -39.93754182 313.83336499 -32.453125 301.31347656 C-31.916875 300.42063965 -31.380625 299.52780273 -30.828125 298.60791016 C6.19219405 236.8752427 53.0960892 158.59045827 35.94482422 83.68408203 C32.95106611 71.77408256 28.49626488 61.02961898 22.546875 50.31347656 C22.06605469 49.41628906 21.58523438 48.51910156 21.08984375 47.59472656 C4.49557257 18.13630855 -24.28486838 -3.22232143 -56.453125 -12.68652344 C-106.41594258 -26.49799718 -157.71714015 -11.23615256 -192.95703125 26.66210938 Z " fill="#000000" transform="translate(349.453125,41.6865234375)"/>
<path d="M0 0 C1.7327417 0.17909912 1.7327417 0.17909912 3.50048828 0.36181641 C68.80568389 8.77482419 68.80568389 8.77482419 86.5390625 29.51953125 C90.07541218 34.45801255 90.49479159 38.85123813 90.08984375 44.82421875 C86.99147105 53.80949958 82.00889696 58.10648492 74.08984375 62.82421875 C72.87941406 63.55125 72.87941406 63.55125 71.64453125 64.29296875 C30.59710422 86.79126695 -27.38284865 87.06590878 -73.09765625 87.01171875 C-74.05137115 87.0111145 -75.00508606 87.01051025 -75.98770142 87.0098877 C-194.11649395 86.80847667 -194.11649395 86.80847667 -230.16015625 57.69921875 C-235.83449601 51.76695445 -238.34735425 47.18442086 -238.1796875 38.96875 C-237.36005127 32.44729655 -233.53335543 27.65902625 -228.5546875 23.61328125 C-208.54927449 10.07933862 -177.08344547 0.25504158 -152.91015625 0.82421875 C-150.61108557 1.97375409 -148.72877963 3.00559537 -146.91015625 4.82421875 C-146.43765094 12.14805109 -146.43765094 12.14805109 -147.97558594 14.34887695 C-150.77753062 16.48569569 -153.79820772 16.85427813 -157.19140625 17.4375 C-158.67947701 17.7153146 -160.1675128 17.99331658 -161.65551758 18.27148438 C-162.43263092 18.41239502 -163.20974426 18.55330566 -164.01040649 18.69848633 C-195.82210088 23.30277336 -195.82210088 23.30277336 -221.91015625 39.82421875 C-221.84296686 42.36781721 -221.26444873 43.42380536 -219.58984375 45.31640625 C-183.42131549 73.02995388 -118.25623166 71.05818164 -74.72265625 71.01171875 C-73.14485886 71.01081238 -73.14485886 71.01081238 -71.53518677 71.0098877 C4.18821817 72.01257621 4.18821817 72.01257621 72.52734375 44.86328125 C74.31109706 42.97823562 74.31109706 42.97823562 74.03515625 40.75390625 C69.99048732 32.49743331 58.15682591 29.63417549 50.08984375 26.82421875 C49.45997559 26.60378906 48.83010742 26.38335937 48.18115234 26.15625 C36.60945381 22.21440689 24.68260403 20.06875629 12.66796875 17.9375 C11.59095703 17.74623535 10.51394531 17.5549707 9.40429688 17.35791016 C7.11407371 16.98913969 4.81423474 16.67720707 2.50976562 16.41162109 C1.35541016 16.27320801 0.20105469 16.13479492 -0.98828125 15.9921875 C-2.02887695 15.88543701 -3.06947266 15.77868652 -4.14160156 15.66870117 C-7.77438456 14.56060625 -8.94588221 13.02219576 -10.91015625 9.82421875 C-10.91015625 6.09612528 -10.89007255 3.82080846 -8.21704102 1.10229492 C-5.19732683 -0.57070791 -3.41701815 -0.35481871 0 0 Z " fill="#000000" transform="translate(329.91015625,404.17578125)"/>
<path d="M0 0 C17.95721688 13.86501753 30.85570501 33.26142568 33.97216797 56.08789062 C36.47579885 80.49971106 31.38715151 103.59780065 15.82299805 122.9296875 C14.62821253 124.36333869 13.40868247 125.77626596 12.1875 127.1875 C11.61515625 127.86039063 11.0428125 128.53328125 10.453125 129.2265625 C-2.96769562 143.77685812 -24.27582099 153.09654796 -43.81005859 154.31176758 C-68.60274769 155.24445318 -91.31389305 148.13115158 -109.8125 131.1875 C-126.24376223 115.39008468 -135.58849678 94.14648379 -136.16601562 71.35717773 C-136.34667133 48.38310943 -129.17948597 27.40521266 -113.14453125 10.5234375 C-111.99017578 9.36714844 -111.99017578 9.36714844 -110.8125 8.1875 C-110.05324219 7.41664062 -109.29398438 6.64578125 -108.51171875 5.8515625 C-78.83887284 -22.60717351 -32.75330414 -22.62533208 0 0 Z M-103.23828125 21.7109375 C-116.05328127 36.39972744 -121.98370959 54.41512693 -121.1875 73.73828125 C-119.76335969 94.2325504 -110.04438557 109.74913865 -95.34375 123.49609375 C-82.19082216 134.79138406 -64.06424334 140.36666912 -46.8125 139.5625 C-27.99231681 138.09217319 -11.6594146 129.8217442 1.1875 116.1875 C1.93644531 115.39601563 2.68539062 114.60453125 3.45703125 113.7890625 C15.8851165 99.48369478 20.49926737 81.06755804 19.39453125 62.44091797 C17.66092316 43.57157516 8.27519928 27.07291863 -5.73046875 14.5859375 C-35.74542651 -9.12468964 -76.98914713 -5.59492504 -103.23828125 21.7109375 Z " fill="#000000" transform="translate(306.8125,87.8125)"/>
</svg>
